<svg width="1276" height="116" viewBox="0 0 1276 116" fill="none" xmlns="http://www.w3.org/2000/svg">
<path d="M12.4099 108.492L0 105.489V0H1276V114.874L1265.36 112.997L1256.06 114.874H1218.83L1205.09 112.997H1187.36L1180.27 110.369L1167.86 112.997H1158.11L1149.24 110.369H1136.83L1127.08 112.997L1119.1 110.369L1104.92 109.618L1088.08 110.369L1074.34 109.618L1060.6 105.489L1034.89 110.369L1023.81 109.618H999.88L993.232 108.492L983.925 110.369H971.515L963.981 112.997H955.116L944.479 110.369L928.081 116L912.125 112.997L894.84 116L881.544 112.997H870.463H852.292L845.644 110.369H832.791L814.619 112.997H807.971L803.096 110.369H789.799L778.719 109.618L777.389 110.369L772.514 108.117L751.24 110.369H746.365H735.284L724.204 112.997H711.794H691.85C685.468 110.895 674.417 112.121 669.689 112.997C664.371 112.121 653.291 110.369 651.518 110.369H643.983C643.274 110.369 638.665 112.121 636.449 112.997L612.515 108.492L606.754 110.369L587.696 108.492V111.495L560.66 108.492H547.807H539.386L527.862 104.362H491.076L479.109 108.492H471.575H457.392H448.971C445.869 107.115 439.043 104.362 436.561 104.362C434.079 104.362 426.663 107.115 423.265 108.492H406.423C403.468 105.864 395.609 101.359 387.808 104.362C380.008 107.366 368.898 108.367 364.318 108.492L358.556 112.246C356.045 110.995 350.224 108.492 347.033 108.492C343.842 108.492 339.203 110.995 337.282 112.246C336.1 113.372 331.255 114.949 321.327 112.246C311.399 109.543 300.939 111.12 296.95 112.246H286.757H277.449H272.131L249.527 108.492H226.037H215.4L202.99 112.246H179.943H160.885H144.486L121.883 108.492L116.564 115.625H105.041L84.2098 112.246H70.9135H54.5148C51.6782 112.246 40.6275 109.743 35.4568 108.492L19.9444 105.489L12.4099 102.861V108.492Z" fill="white"/>
</svg>
