<svg width="39" height="29" viewBox="0 0 39 29" fill="none" xmlns="http://www.w3.org/2000/svg">
<path opacity="0.3" d="M0 11.3382C0 10.7047 0.513556 10.1912 1.14706 10.1912H5.16176C5.79527 10.1912 6.30882 10.7047 6.30882 11.3382V28.5441H0V11.3382Z" fill="white"/>
<path opacity="0.6" d="M32.6909 14.7794C32.6909 14.1459 33.2045 13.6323 33.838 13.6323H37.8527C38.4862 13.6323 38.9997 14.1459 38.9997 14.7794V28.5441H32.6909V14.7794Z" fill="white"/>
<path opacity="0.6" d="M10.897 6.74996C10.897 6.11646 11.4105 5.60291 12.044 5.60291H16.0587C16.6922 5.60291 17.2058 6.11646 17.2058 6.74996V28.5441H10.897V6.74996Z" fill="white"/>
<path d="M21.7939 1.58822C21.7939 0.954719 22.3075 0.441162 22.941 0.441162H26.9557C27.5892 0.441162 28.1028 0.954718 28.1028 1.58822V28.5441H21.7939V1.58822Z" fill="white"/>
</svg>
