<svg width="102" height="151" viewBox="0 0 102 151" fill="none" xmlns="http://www.w3.org/2000/svg">
<path d="M55.0418 131.432C53.332 132.611 51.4714 133.201 49.4599 133.201C47.9421 133.201 46.5752 132.881 45.3591 132.241C44.1522 131.592 43.1968 130.714 42.4927 129.608C41.7887 128.501 41.4367 127.249 41.4367 125.85C41.4367 124.524 41.7521 123.345 42.383 122.311C43.0139 121.269 43.8734 120.446 44.9614 119.843C46.0586 119.239 47.2975 118.938 48.6781 118.938C50.1136 118.938 51.3754 119.271 52.4634 119.939C53.5514 120.606 54.3972 121.534 55.0006 122.723C55.6132 123.902 55.9195 125.274 55.9195 126.837V127.276H46.2643C46.4289 127.724 46.6758 128.122 47.0049 128.469C47.3432 128.817 47.7638 129.096 48.2667 129.306C48.7695 129.507 49.3456 129.608 49.9947 129.608C51.3388 129.608 52.6006 129.173 53.78 128.305L55.0418 131.432ZM46.0723 125.246H51.7777C51.7228 124.734 51.5674 124.282 51.3114 123.889C51.0554 123.496 50.7171 123.189 50.2965 122.97C49.885 122.75 49.4233 122.641 48.9113 122.641C48.3901 122.641 47.9284 122.76 47.5261 122.997C47.1329 123.226 46.8083 123.537 46.5523 123.93C46.3055 124.314 46.1454 124.753 46.0723 125.246ZM62.1461 132.927H58.1962V112.355H62.6947V120.679C63.2524 120.131 63.8924 119.706 64.6147 119.404C65.3462 119.093 66.1371 118.938 66.9874 118.938C68.2126 118.938 69.3006 119.249 70.2515 119.87C71.2024 120.483 71.9522 121.329 72.5008 122.407C73.0494 123.477 73.3237 124.698 73.3237 126.069C73.3237 127.441 73.0494 128.666 72.5008 129.745C71.9522 130.815 71.2024 131.66 70.2515 132.282C69.3006 132.895 68.2126 133.201 66.9874 133.201C66.0548 133.201 65.1908 133.018 64.3953 132.652C63.609 132.278 62.9324 131.766 62.3655 131.116L62.1461 132.927ZM65.6982 129.169C66.2834 129.169 66.8 129.036 67.248 128.771C67.7051 128.506 68.0617 128.14 68.3177 127.674C68.5829 127.199 68.7155 126.659 68.7155 126.056C68.7155 125.461 68.5829 124.931 68.3177 124.465C68.0617 123.998 67.7051 123.633 67.248 123.368C66.8 123.093 66.2834 122.956 65.6982 122.956C65.1588 122.956 64.665 123.08 64.217 123.326C63.7781 123.573 63.4261 123.907 63.161 124.328C62.8958 124.748 62.7404 125.228 62.6947 125.768V126.33C62.7404 126.888 62.8958 127.381 63.161 127.811C63.4261 128.232 63.7781 128.565 64.217 128.812C64.665 129.05 65.1588 129.169 65.6982 129.169ZM82.2657 133.201C80.8394 133.201 79.5639 132.895 78.4393 132.282C77.3238 131.66 76.4461 130.815 75.806 129.745C75.166 128.666 74.846 127.441 74.846 126.069C74.846 124.698 75.166 123.477 75.806 122.407C76.4461 121.329 77.3238 120.483 78.4393 119.87C79.5639 119.249 80.8394 118.938 82.2657 118.938C83.6921 118.938 84.9584 119.249 86.0647 119.87C87.1802 120.483 88.0534 121.329 88.6843 122.407C89.3243 123.477 89.6443 124.698 89.6443 126.069C89.6443 127.441 89.3243 128.666 88.6843 129.745C88.0534 130.815 87.1802 131.66 86.0647 132.282C84.9584 132.895 83.6921 133.201 82.2657 133.201ZM82.252 129.169C82.7823 129.169 83.2578 129.036 83.6783 128.771C84.0989 128.506 84.4281 128.136 84.6658 127.66C84.9127 127.185 85.0361 126.645 85.0361 126.042C85.0361 125.457 84.9127 124.931 84.6658 124.465C84.4281 123.998 84.0989 123.633 83.6783 123.368C83.2578 123.102 82.7823 122.97 82.252 122.97C81.7126 122.97 81.2325 123.102 80.8119 123.368C80.3914 123.633 80.0576 123.998 79.8108 124.465C79.573 124.931 79.4542 125.457 79.4542 126.042C79.4542 126.645 79.573 127.185 79.8108 127.66C80.0576 128.136 80.3914 128.506 80.8119 128.771C81.2325 129.036 81.7126 129.169 82.252 129.169Z" fill="#FCF8F1"/>
<g clip-path="url(#clip0_115_445)">
<path d="M22.2781 114.788H20.6341C18.456 114.788 16.6875 113.018 16.6875 110.837V110.593C16.6875 110.396 16.8483 110.235 17.0453 110.235H18.4923C18.2796 110.235 18.1137 110.407 18.1137 110.614C18.1085 112.919 19.9755 114.788 22.2781 114.788Z" fill="#FCF8F1"/>
<path d="M34.7244 126.396C38.0228 125.306 40.4032 122.191 40.4032 118.526C40.4032 115.401 38.6762 112.68 36.1247 111.268C35.7046 111.035 35.2689 110.843 34.8126 110.682C34.4132 110.542 33.9984 110.438 33.5731 110.36C33.1997 110.292 32.8211 110.256 32.4373 110.24H32.4321C32.3232 110.235 32.2247 110.235 32.1262 110.235H18.4919C18.2792 110.235 18.1133 110.407 18.1133 110.619C18.1133 112.924 19.9803 114.793 22.2829 114.793H23.8595V131.301C23.8595 131.457 23.984 131.582 24.1395 131.582H26.6237C27.6091 131.582 28.4077 130.782 28.4077 129.796V126.505L36.4929 134.598C37.1878 135.294 38.3184 135.294 39.0133 134.598L39.7083 133.902C40.4032 133.207 40.4032 132.075 39.7083 131.379L34.7244 126.396ZM29.6783 121.345L29.3101 120.976C28.7863 120.374 28.4544 119.606 28.4025 118.759V118.297C28.5218 116.34 30.1451 114.793 32.1262 114.793C34.1851 114.793 35.855 116.465 35.855 118.531C35.855 120.592 34.1851 122.269 32.1262 122.269C31.1875 122.258 30.3318 121.916 29.6783 121.345Z" fill="#FCF8F1"/>
</g>
<path d="M23.8186 147.272H21.5869L25.1672 138.2H27.4049L30.9792 147.272H28.7475L28.0823 145.488H24.4838L23.8186 147.272ZM25.1672 143.631H27.4049L26.2861 140.656L25.1672 143.631ZM33.749 150.296H31.7593V141.224H33.5011L33.5979 142.029C33.8478 141.738 34.1482 141.513 34.499 141.351C34.8497 141.186 35.2308 141.103 35.642 141.103C36.1823 141.103 36.6621 141.24 37.0814 141.515C37.5007 141.785 37.8313 142.158 38.0732 142.634C38.3151 143.105 38.4361 143.643 38.4361 144.248C38.4361 144.853 38.3151 145.393 38.0732 145.869C37.8313 146.341 37.5007 146.714 37.0814 146.988C36.6621 147.258 36.1823 147.393 35.642 147.393C35.267 147.393 34.9183 147.327 34.5957 147.194C34.2772 147.056 33.995 146.867 33.749 146.625V150.296ZM35.0796 145.615C35.3376 145.615 35.5654 145.557 35.763 145.44C35.9646 145.323 36.1198 145.161 36.2286 144.956C36.3415 144.746 36.398 144.51 36.398 144.248C36.398 143.982 36.3415 143.746 36.2286 143.541C36.1157 143.335 35.9605 143.174 35.763 143.057C35.5654 142.936 35.3376 142.875 35.0796 142.875C34.8376 142.875 34.6179 142.93 34.4203 143.039C34.2268 143.144 34.0716 143.291 33.9547 143.48C33.8377 143.666 33.7692 143.881 33.749 144.127V144.387C33.7692 144.625 33.8377 144.837 33.9547 145.022C34.0716 145.208 34.2268 145.353 34.4203 145.458C34.6179 145.563 34.8376 145.615 35.0796 145.615ZM41.4297 150.296H39.44V141.224H41.1818L41.2785 142.029C41.5285 141.738 41.8289 141.513 42.1797 141.351C42.5304 141.186 42.9114 141.103 43.3227 141.103C43.863 141.103 44.3428 141.24 44.7621 141.515C45.1814 141.785 45.512 142.158 45.7539 142.634C45.9958 143.105 46.1168 143.643 46.1168 144.248C46.1168 144.853 45.9958 145.393 45.7539 145.869C45.512 146.341 45.1814 146.714 44.7621 146.988C44.3428 147.258 43.863 147.393 43.3227 147.393C42.9477 147.393 42.599 147.327 42.2764 147.194C41.9579 147.056 41.6757 146.867 41.4297 146.625V150.296ZM42.7602 145.615C43.0183 145.615 43.2461 145.557 43.4436 145.44C43.6452 145.323 43.8005 145.161 43.9093 144.956C44.0222 144.746 44.0787 144.51 44.0787 144.248C44.0787 143.982 44.0222 143.746 43.9093 143.541C43.7964 143.335 43.6412 143.174 43.4436 143.057C43.2461 142.936 43.0183 142.875 42.7602 142.875C42.5183 142.875 42.2986 142.93 42.101 143.039C41.9075 143.144 41.7523 143.291 41.6354 143.48C41.5184 143.666 41.4499 143.881 41.4297 144.127V144.387C41.4499 144.625 41.5184 144.837 41.6354 145.022C41.7523 145.208 41.9075 145.353 42.101 145.458C42.2986 145.563 42.5183 145.615 42.7602 145.615ZM49.2495 147.272H47.1207V138.2H49.2495V147.272ZM51.584 139.93C51.334 139.93 51.1223 139.843 50.949 139.67C50.7796 139.493 50.6949 139.279 50.6949 139.029C50.6949 138.783 50.7796 138.573 50.949 138.4C51.1223 138.223 51.334 138.134 51.584 138.134C51.838 138.134 52.0517 138.223 52.225 138.4C52.3984 138.573 52.4851 138.783 52.4851 139.029C52.4851 139.279 52.3984 139.493 52.225 139.67C52.0517 139.843 51.838 139.93 51.584 139.93ZM52.5819 147.272H50.5982V141.224H52.5819V147.272ZM59.4038 146.28C59.1094 146.627 58.7446 146.899 58.3091 147.097C57.8737 147.294 57.3919 147.393 56.8637 147.393C56.2347 147.393 55.6723 147.258 55.1764 146.988C54.6845 146.714 54.2974 146.341 54.0152 145.869C53.733 145.393 53.5918 144.853 53.5918 144.248C53.5918 143.643 53.733 143.105 54.0152 142.634C54.2974 142.158 54.6845 141.785 55.1764 141.515C55.6723 141.24 56.2347 141.103 56.8637 141.103C57.3878 141.103 57.8656 141.202 58.297 141.4C58.7325 141.593 59.0973 141.859 59.3917 142.198L58.2305 143.426C58.0894 143.256 57.9079 143.123 57.6862 143.027C57.4685 142.93 57.2407 142.881 57.0028 142.881C56.7367 142.881 56.4988 142.94 56.2892 143.057C56.0835 143.17 55.9202 143.329 55.7993 143.535C55.6824 143.74 55.6239 143.974 55.6239 144.236C55.6239 144.506 55.6824 144.746 55.7993 144.956C55.9202 145.161 56.0835 145.323 56.2892 145.44C56.4988 145.557 56.7367 145.615 57.0028 145.615C57.2407 145.615 57.4705 145.567 57.6922 145.47C57.914 145.373 58.0934 145.24 58.2305 145.071L59.4038 146.28ZM65.9354 147.272H64.1997L64.0968 146.583C63.8751 146.841 63.605 147.04 63.2864 147.181C62.9679 147.323 62.6172 147.393 62.2341 147.393C61.8148 147.393 61.4419 147.312 61.1153 147.151C60.7887 146.99 60.5307 146.768 60.3412 146.486C60.1557 146.2 60.063 145.875 60.063 145.512C60.063 145.129 60.1638 144.793 60.3654 144.502C60.571 144.212 60.8532 143.984 61.212 143.819C61.5709 143.654 61.9801 143.571 62.4397 143.571C62.7018 143.571 62.9599 143.599 63.2139 143.656C63.4719 143.712 63.7178 143.791 63.9517 143.891V143.764C63.9517 143.551 63.8872 143.365 63.7582 143.208C63.6291 143.051 63.4538 142.928 63.232 142.839C63.0103 142.746 62.7583 142.7 62.476 142.7C62.1978 142.7 61.9277 142.744 61.6656 142.833C61.4036 142.918 61.1637 143.041 60.9459 143.202L60.4258 141.72C60.8532 141.515 61.2786 141.361 61.7019 141.261C62.1293 141.156 62.5405 141.103 62.9357 141.103C63.5445 141.103 64.0727 141.222 64.5202 141.46C64.9718 141.698 65.3205 142.035 65.5665 142.47C65.8124 142.902 65.9354 143.414 65.9354 144.006V147.272ZM62.6817 145.911C62.8873 145.911 63.0848 145.867 63.2743 145.778C63.4679 145.686 63.6251 145.565 63.7461 145.415C63.8711 145.266 63.9356 145.107 63.9396 144.938V144.914C63.7783 144.809 63.5989 144.73 63.4013 144.678C63.2038 144.621 63.0062 144.593 62.8087 144.593C62.5143 144.593 62.2785 144.653 62.1011 144.774C61.9237 144.891 61.835 145.049 61.835 145.246C61.835 145.371 61.8713 145.486 61.9438 145.591C62.0164 145.692 62.1172 145.77 62.2462 145.827C62.3752 145.883 62.5204 145.911 62.6817 145.911ZM71.4449 147.109C70.9611 147.298 70.4914 147.393 70.0358 147.393C69.556 147.393 69.1306 147.292 68.7597 147.091C68.3928 146.885 68.1065 146.603 67.9009 146.244C67.6953 145.881 67.5925 145.46 67.5925 144.98V142.996H66.5341V141.224H67.7013V139.712H69.5761V141.224H71.209V142.996H69.5761V144.623C69.5761 144.942 69.6648 145.188 69.8422 145.361C70.0196 145.534 70.2333 145.621 70.4833 145.621C70.7252 145.621 70.9611 145.545 71.1909 145.391L71.4449 147.109ZM73.1504 139.93C72.9004 139.93 72.6887 139.843 72.5154 139.67C72.346 139.493 72.2614 139.279 72.2614 139.029C72.2614 138.783 72.346 138.573 72.5154 138.4C72.6887 138.223 72.9004 138.134 73.1504 138.134C73.4044 138.134 73.6181 138.223 73.7915 138.4C73.9648 138.573 74.0515 138.783 74.0515 139.029C74.0515 139.279 73.9648 139.493 73.7915 139.67C73.6181 139.843 73.4044 139.93 73.1504 139.93ZM74.1483 147.272H72.1646V141.224H74.1483V147.272ZM78.4301 147.393C77.8011 147.393 77.2387 147.258 76.7428 146.988C76.2509 146.714 75.8638 146.341 75.5816 145.869C75.2994 145.393 75.1583 144.853 75.1583 144.248C75.1583 143.643 75.2994 143.105 75.5816 142.634C75.8638 142.158 76.2509 141.785 76.7428 141.515C77.2387 141.24 77.8011 141.103 78.4301 141.103C79.0591 141.103 79.6175 141.24 80.1053 141.515C80.5972 141.785 80.9823 142.158 81.2605 142.634C81.5427 143.105 81.6838 143.643 81.6838 144.248C81.6838 144.853 81.5427 145.393 81.2605 145.869C80.9823 146.341 80.5972 146.714 80.1053 146.988C79.6175 147.258 79.0591 147.393 78.4301 147.393ZM78.4241 145.615C78.6579 145.615 78.8676 145.557 79.053 145.44C79.2385 145.323 79.3836 145.159 79.4885 144.95C79.5973 144.74 79.6518 144.502 79.6518 144.236C79.6518 143.978 79.5973 143.746 79.4885 143.541C79.3836 143.335 79.2385 143.174 79.053 143.057C78.8676 142.94 78.6579 142.881 78.4241 142.881C78.1862 142.881 77.9745 142.94 77.789 143.057C77.6036 143.174 77.4564 143.335 77.3476 143.541C77.2427 143.746 77.1903 143.978 77.1903 144.236C77.1903 144.502 77.2427 144.74 77.3476 144.95C77.4564 145.159 77.6036 145.323 77.789 145.44C77.9745 145.557 78.1862 145.615 78.4241 145.615ZM88.8504 147.272H86.8668V144.242C86.8668 143.811 86.774 143.476 86.5886 143.238C86.4071 143 86.1491 142.881 85.8145 142.881C85.5846 142.881 85.383 142.938 85.2097 143.051C85.0403 143.164 84.9093 143.325 84.8166 143.535C84.7238 143.744 84.6775 143.996 84.6775 144.291V147.272H82.6938V141.224H84.2783L84.3448 142.192C84.5585 141.837 84.8428 141.567 85.1976 141.382C85.5524 141.196 85.9656 141.103 86.4374 141.103C87.1913 141.103 87.782 141.337 88.2094 141.805C88.6368 142.269 88.8504 142.912 88.8504 143.734V147.272Z" fill="#FCF8F1"/>
<path fill-rule="evenodd" clip-rule="evenodd" d="M56.3914 3.60342C53.928 -0.664277 47.7682 -0.664276 45.3048 3.60343L36.711 18.4918C37.0346 18.5728 37.3077 18.8479 37.313 19.2635C37.3939 25.6419 37.0779 35.4748 35.3826 38.7978C37.2326 36.0009 45.6236 24.6279 59.5988 24.8841C60.5411 24.9014 60.5564 26.1837 59.6385 26.3973C56.4053 27.1496 52.3713 28.452 49.8001 30.5932C49.4076 30.9202 49.6577 31.5075 50.1686 31.5075C50.8159 31.5075 51.0316 32.4849 50.4554 32.7799C47.6792 34.2014 43.5927 36.6667 42.2647 39.4127C50.0552 33.9354 75.7988 32.0825 80.4168 56.7871C80.5906 57.7171 79.1991 58.1035 78.743 57.2746C77.1176 54.3208 74.6542 50.5717 71.4224 47.7129C70.7227 47.094 70.0001 47.9321 70.5438 48.6917C70.908 49.2004 71.2419 49.7093 71.5152 50.1929C71.8718 50.8236 71.2421 51.287 70.6399 50.8839C67.957 49.0875 62.4364 45.5245 58.7263 44.0396C57.9675 43.7359 57.677 44.443 58.3383 44.9233C59.1525 45.5146 60.0327 46.1804 60.6823 46.7423C61.1715 47.1655 60.8742 47.5683 60.2531 47.3881C56.8877 46.4122 48.0395 44.3881 40.0139 47.217C47.3595 46.7725 72.6731 47.6723 74.3889 75.308C74.4502 76.2955 72.7324 76.512 72.357 75.5966C70.4626 70.9765 67.5269 67.3615 64.0705 64.5498C63.4184 64.0193 62.5613 64.7286 62.9002 65.4979C63.7921 67.5221 64.8006 69.9822 64.5823 70.2961C64.5174 70.3893 64.3886 70.2532 64.3179 70.1643C54.7358 58.125 45.4995 55.1558 39.1482 54.8353C56.8419 64.4261 60.415 77.9142 58.457 89.3607H58.9657C58.9657 89.3607 57.7862 98.0483 52.132 105.536C51.256 106.696 52.4935 108.58 53.7294 107.815C65.128 100.756 66.7379 89.3607 66.7379 89.3607H94.8072C99.734 89.3607 102.813 84.0276 100.35 79.7606L56.3914 3.60342ZM50.0452 89.3607C49.9816 88.2676 49.8734 87.1971 49.7249 86.1474C49.5908 85.1991 47.6478 85.2337 47.2819 86.1189C47.2082 86.2971 47.1339 86.469 47.0598 86.6342C46.7225 87.3856 45.7575 87.1056 45.7334 86.2823C45.1745 67.1895 32.3958 58.2425 32.3958 58.2425C34.6424 60.238 41.3846 76.7207 31.408 89.3607H32.0222C32.0222 89.3607 31.1816 90.7327 28.9852 92.6477C27.8229 93.6611 28.5142 95.2116 29.7872 94.3414C33.4706 91.8233 35.1311 89.3607 35.1311 89.3607H50.0452ZM25.0288 89.3607C25.0627 88.5646 24.2146 87.4914 23.5647 87.8614C22.975 88.1971 21.8028 87.7752 22.2252 87.244C24.6306 84.2189 26.1702 81.1876 27.1101 78.3075C27.3935 77.4392 26.6007 76.0581 25.9419 76.6909C25.381 77.2297 23.935 77.1606 24.2557 76.452C28.7666 66.4862 26.3879 60.2867 26.336 60.3786C23.3097 65.7426 19.5022 73.4281 13.5658 89.3607H25.0288ZM3.69921 88.5203L19.9957 57.1381C20.1625 56.8167 20.104 56.42 19.8327 56.1801C18.4877 54.9906 17.057 54.5148 14.7644 56.5134L1.34572 79.7606C-0.523374 82.9988 0.799428 86.8509 3.69921 88.5203ZM30.6848 28.932C30.7765 29.009 30.8432 29.1205 30.8617 29.2616C30.9401 29.862 31.8075 29.8665 31.8922 29.267L32.3464 26.0533L30.6848 28.932Z" fill="#FCF8F1"/>
<defs>
<clipPath id="clip0_115_445">
<rect width="24.494" height="24.887" fill="white" transform="translate(15.9106 110.235)"/>
</clipPath>
</defs>
</svg>
