<svg width="102" height="108" viewBox="0 0 102 108" fill="none" xmlns="http://www.w3.org/2000/svg">
<path fill-rule="evenodd" clip-rule="evenodd" d="M56.3914 3.60342C53.928 -0.664277 47.7682 -0.664276 45.3048 3.60343L36.711 18.4918C37.0346 18.5728 37.3077 18.8479 37.313 19.2635C37.3939 25.6419 37.0779 35.4748 35.3826 38.7978C37.2326 36.0009 45.6236 24.6279 59.5988 24.8841C60.5411 24.9014 60.5564 26.1837 59.6385 26.3973C56.4053 27.1496 52.3713 28.452 49.8001 30.5932C49.4076 30.9202 49.6577 31.5075 50.1686 31.5075C50.8159 31.5075 51.0316 32.4849 50.4554 32.7799C47.6792 34.2014 43.5927 36.6667 42.2647 39.4127C50.0552 33.9354 75.7988 32.0825 80.4168 56.7871C80.5906 57.7171 79.1991 58.1035 78.743 57.2746C77.1176 54.3208 74.6542 50.5717 71.4224 47.7129C70.7227 47.094 70.0001 47.9321 70.5438 48.6917C70.908 49.2004 71.2419 49.7093 71.5152 50.1929C71.8718 50.8236 71.2421 51.287 70.6399 50.8839C67.957 49.0875 62.4364 45.5245 58.7263 44.0396C57.9675 43.7359 57.677 44.443 58.3383 44.9233C59.1525 45.5146 60.0327 46.1804 60.6823 46.7423C61.1715 47.1655 60.8742 47.5683 60.2531 47.3881C56.8877 46.4122 48.0395 44.3881 40.0139 47.217C47.3595 46.7725 72.6731 47.6723 74.3889 75.308C74.4502 76.2955 72.7324 76.512 72.357 75.5966C70.4626 70.9765 67.5269 67.3615 64.0705 64.5498C63.4184 64.0193 62.5613 64.7286 62.9002 65.4979C63.7921 67.5221 64.8006 69.9822 64.5823 70.2961C64.5174 70.3893 64.3886 70.2532 64.3179 70.1643C54.7358 58.125 45.4995 55.1558 39.1482 54.8353C56.8419 64.4261 60.415 77.9142 58.457 89.3607H58.9657C58.9657 89.3607 57.7862 98.0483 52.132 105.536C51.256 106.696 52.4935 108.58 53.7294 107.815C65.128 100.756 66.7379 89.3607 66.7379 89.3607H94.8072C99.734 89.3607 102.813 84.0276 100.35 79.7606L56.3914 3.60342ZM50.0452 89.3607C49.9816 88.2676 49.8734 87.1971 49.7249 86.1474C49.5908 85.1991 47.6478 85.2337 47.2819 86.1189C47.2082 86.2971 47.1339 86.469 47.0598 86.6342C46.7225 87.3856 45.7575 87.1056 45.7334 86.2823C45.1745 67.1895 32.3958 58.2425 32.3958 58.2425C34.6424 60.238 41.3846 76.7207 31.408 89.3607H32.0222C32.0222 89.3607 31.1816 90.7327 28.9852 92.6477C27.8229 93.6611 28.5142 95.2116 29.7872 94.3414C33.4706 91.8233 35.1311 89.3607 35.1311 89.3607H50.0452ZM25.0288 89.3607C25.0627 88.5646 24.2146 87.4914 23.5647 87.8614C22.975 88.1971 21.8028 87.7752 22.2252 87.244C24.6306 84.2189 26.1702 81.1876 27.1101 78.3075C27.3935 77.4392 26.6007 76.0581 25.9419 76.6909C25.381 77.2297 23.935 77.1606 24.2557 76.452C28.7666 66.4862 26.3879 60.2867 26.336 60.3786C23.3097 65.7426 19.5022 73.4281 13.5658 89.3607H25.0288ZM3.69921 88.5203L19.9957 57.1381C20.1625 56.8167 20.104 56.42 19.8327 56.1801C18.4877 54.9906 17.057 54.5148 14.7644 56.5134L1.34572 79.7606C-0.523374 82.9988 0.799428 86.8509 3.69921 88.5203ZM30.6848 28.932C30.7765 29.009 30.8432 29.1205 30.8617 29.2616C30.9401 29.862 31.8075 29.8665 31.8922 29.267L32.3464 26.0533L30.6848 28.932Z" fill="#4B2E1E"/>
</svg>
