<svg width="16" height="13" viewBox="0 0 16 13" fill="none" xmlns="http://www.w3.org/2000/svg">
<path d="M5.05225 1.90587C5.05225 1.3484 5.50416 0.896484 6.06163 0.896484H11.5652C11.844 0.896484 12.0699 1.12244 12.0699 1.40118V3.51272C12.0699 3.79572 12.3861 3.96385 12.6207 3.80564L12.9106 3.61018C13.0811 3.49521 13.3044 3.49521 13.4749 3.61018L13.7648 3.80564C13.9994 3.96385 14.3156 3.79572 14.3156 3.51272V1.40118C14.3156 1.12244 14.5415 0.896484 14.8203 0.896484H14.9904C15.5479 0.896484 15.9998 1.3484 15.9998 1.90587V10.9904C15.9998 11.5478 15.5479 11.9997 14.9904 11.9997H11.1144C10.5569 11.9997 10.105 11.5478 10.105 10.9904V7.9622C10.105 6.84726 9.20114 5.94342 8.0862 5.94342H6.06163C5.50416 5.94342 5.05225 5.4915 5.05225 4.93403V1.90587Z" fill="#8B3A3A"/>
<path d="M0 7.96227C0 7.4048 0.451918 6.95288 1.00939 6.95288H1.46026C1.73899 6.95288 1.96495 7.17884 1.96495 7.45757V9.56911C1.96495 9.85211 2.28108 10.0202 2.51573 9.86204L2.80564 9.66658C2.97616 9.5516 3.19939 9.5516 3.36992 9.66658L3.65982 9.86204C3.89447 10.0202 4.2106 9.85211 4.2106 9.56911V7.45757C4.2106 7.17884 4.43656 6.95288 4.7153 6.95288H7.97323C8.5307 6.95288 8.98262 7.4048 8.98262 7.96227V11.755C8.98262 12.3125 8.5307 12.7644 7.97324 12.7644H1.00939C0.451917 12.7644 0 12.3125 0 11.755V7.96227Z" fill="#8B3A3A"/>
<path d="M2.24561 7.20513C2.24561 6.9264 2.47156 6.70044 2.7503 6.70044H3.42515C3.70389 6.70044 3.92985 6.9264 3.92985 7.20513V9.42384C3.92985 9.6126 3.69388 9.69811 3.57296 9.55317L3.47526 9.43607C3.2735 9.19423 2.90196 9.19423 2.70019 9.43607L2.6025 9.55317C2.48157 9.69811 2.24561 9.6126 2.24561 9.42384V7.20513Z" fill="#8B3A3A"/>
<path d="M12.3511 1.14886C12.3511 0.870124 12.577 0.644165 12.8558 0.644165H13.5306C13.8094 0.644165 14.0353 0.870124 14.0353 1.14886V3.36757C14.0353 3.55633 13.7993 3.64184 13.6784 3.4969L13.5807 3.3798C13.379 3.13796 13.0074 3.13796 12.8057 3.37979L12.708 3.4969C12.587 3.64184 12.3511 3.55633 12.3511 3.36757V1.14886Z" fill="#8B3A3A"/>
</svg>
