<svg width="11" height="14" viewBox="0 0 11 14" fill="none" xmlns="http://www.w3.org/2000/svg">
<path fill-rule="evenodd" clip-rule="evenodd" d="M4.27894 0.57965C4.47216 0.917772 4.35468 1.3485 4.01656 1.54171L2.0422 2.66992C1.70408 2.86313 1.27335 2.74566 1.08014 2.40754C0.886927 2.06942 1.0044 1.63869 1.34252 1.44547L3.31688 0.317269C3.655 0.124057 4.08573 0.241529 4.27894 0.57965ZM6.72126 0.57965C6.91447 0.241529 7.3452 0.124057 7.68332 0.317269L9.65768 1.44547C9.9958 1.63869 10.1133 2.06942 9.92006 2.40754C9.72685 2.74566 9.29612 2.86313 8.958 2.66992L6.98364 1.54171C6.64552 1.3485 6.52805 0.917772 6.72126 0.57965ZM3.72806 2.53068C4.82829 1.89907 6.17171 1.89907 7.27194 2.53068L9.15766 3.61322C10.2957 4.26655 11 5.49555 11 6.82816V8.84988C11 10.1825 10.2957 11.4115 9.15766 12.0648L7.27194 13.1474C6.17171 13.779 4.82829 13.779 3.72806 13.1474L1.84234 12.0648C0.704286 11.4115 0 10.1825 0 8.84988V6.82816C0 5.49555 0.704286 4.26655 1.84234 3.61322L3.72806 2.53068ZM6.34651 5.15975C6.34651 4.77032 6.03081 4.45463 5.64138 4.45463C5.25195 4.45463 4.93625 4.77032 4.93625 5.15975V7.66316C4.67811 7.86991 4.51279 8.18776 4.51279 8.54422C4.51279 9.16731 5.01791 9.67243 5.641 9.67243C6.26409 9.67243 6.7692 9.16731 6.7692 8.54422C6.7692 8.18812 6.60421 7.87054 6.34651 7.66377V5.15975Z" fill="white"/>
</svg>
